<svg id="bold" xmlns="http://www.w3.org/2000/svg" viewBox="0 0 447.02 315.5"><defs><style>.cls-1{fill:#5a2ce2;}</style></defs><path class="cls-1" d="M440.19,174.25l-93.38,93.37a23.34,23.34,0,1,1-33.58-32.43l.58-.57,76.87-76.87L313.81,80.88A23.34,23.34,0,1,1,346.24,47.3c.2.19.39.38.57.58l93.38,93.37a23.34,23.34,0,0,1,0,33Z"/><path class="cls-1" d="M6.83,174.25l93.37,93.37a23.35,23.35,0,0,0,33.59-32.43l-.58-.57L56.34,157.75l76.87-76.87A23.34,23.34,0,0,0,100.78,47.3c-.2.19-.39.38-.58.58L6.83,141.25a23.34,23.34,0,0,0,0,33Z"/><rect class="cls-1" x="201.28" y="-7.15" width="44.11" height="329.81" rx="22.05" transform="translate(60.51 -61.91) rotate(18.22)"/></svg>