<svg id="Capa_1" data-name="Capa 1" xmlns="http://www.w3.org/2000/svg" viewBox="0 0 511.9 512"><defs><style>.cls-1{fill:#5a2ce2;}</style></defs><path class="cls-1" d="M511.81,222.91C508.32,113.43,409.49,0,255.14,0,182.2,0,115.55,29.05,67.46,81.46,18.78,134.52-5.46,205.32,1,280.8,12.16,409.88,122,512,249.92,512h.5c41.1-.1,59.13-40.34,36.06-69.6C268.8,420,273.74,403.32,279,393.48c8.92-16.69,22.88-24.48,44-24.53,18.72,0,38,.28,56.45-.9C460.65,362.88,514.45,305.91,511.81,222.91Zm-451-26a45,45,0,1,1,45,45A45.05,45.05,0,0,1,60.81,196.89Zm60,165a45,45,0,1,1,45-45A45,45,0,0,1,120.81,361.89Zm75-210a45,45,0,1,1,45-45A45,45,0,0,1,195.81,151.89Zm120,0a45,45,0,1,1,45-45A45,45,0,0,1,315.81,151.89Zm90,90a45,45,0,1,1,45-45A45,45,0,0,1,405.81,241.89Z"/></svg>