<svg id="bold" xmlns="http://www.w3.org/2000/svg" viewBox="0 0 426.67 341.33"><defs><style>.cls-1{fill:#5a2ce2;}</style></defs><path class="cls-1" d="M106.67,151.67A42.67,42.67,0,1,0,64,109,42.71,42.71,0,0,0,106.67,151.67Z"/><path class="cls-1" d="M373.33,0h-320A53.41,53.41,0,0,0,0,53.33V288a53.4,53.4,0,0,0,53.33,53.33h320A53.41,53.41,0,0,0,426.67,288V53.33A53.41,53.41,0,0,0,373.33,0Zm-320,42.67h320A10.67,10.67,0,0,1,384,53.33V204.78l-67.39-78.64c-7.15-8.38-17.5-12.86-28.61-13.12a37.29,37.29,0,0,0-28.5,13.47l-79.23,95.1-25.82-25.75a37.44,37.44,0,0,0-52.9,0L42.67,254.7V53.33A10.67,10.67,0,0,1,53.33,42.67Z"/></svg>