<svg id="Capa_1" data-name="Capa 1" xmlns="http://www.w3.org/2000/svg" viewBox="0 0 494.05 508.97"><defs><style>.cls-1{fill:#c6c6c6;}</style></defs><g id="bag"><path class="cls-1" d="M308.32,143.26H133.49m181.48,0H238.34m0,0H178.86m-45.37,0H121.73m259.27,0h70.07c12,0,22,7.52,22.69,17.18L493.94,451c.08,1.07.11,2.13.11,3.2C494,484.5,463.47,509,425.89,509H68.17c-1.33,0-2.65,0-4-.09C26.67,507.17-2,481.25.11,451l20-290.56c.72-9.66,10.67-17.2,22.69-17.18h79m259.27,0H360.34m0,0H315"/></g><path class="cls-1" d="M385.92,138.89v83.34H330.36V138.89a83.34,83.34,0,1,0-166.67,0v83.34H108.14V138.89a138.89,138.89,0,0,1,277.78,0Z"/></svg>