<svg id="Capa_1" data-name="Capa 1" xmlns="http://www.w3.org/2000/svg" viewBox="0 0 288.14 415.96"><defs><style>.cls-1{fill:#5a2ce2;}</style></defs><path class="cls-1" d="M264.8,264.54c12.93-21.63,21.5-49,23.17-76.06,1-17.38-2.82-35.62-11.2-52.77C263.62,108.76,241,93.63,219.2,79c-16.29-10.91-31.68-21.21-42.56-35.93l-1.95-2.63C168.26,31.8,161,22,159.84,13.79A16.17,16.17,0,0,0,142.88,0,16,16,0,0,0,128,16V301.08A92.65,92.65,0,0,0,80,288c-44.1,0-80,28.71-80,64s35.9,64,80,64,80-28.7,80-64V165.47c24,9.18,63.36,32.57,74.18,87.2A91.63,91.63,0,0,1,228,261.4a16,16,0,0,0,24,21.12A118,118,0,0,0,263.74,266a10,10,0,0,0,1.06-1.47Z"/></svg>