<svg id="Layer_1" data-name="Layer 1" xmlns="http://www.w3.org/2000/svg" viewBox="0 0 423.6 512.1"><defs><style>.cls-1{fill:#5a2ce2;}</style></defs><g id="Layer_2" data-name="Layer 2"><g id="pause"><path class="cls-1" d="M48.2,0h69a48.23,48.23,0,0,1,48.2,48.2V463.9a48.23,48.23,0,0,1-48.2,48.2h-69A48.23,48.23,0,0,1,0,463.9V48.2A48.29,48.29,0,0,1,48.2,0Z"/><path class="cls-1" d="M306.4,0h69a48.23,48.23,0,0,1,48.2,48.2V463.9a48.23,48.23,0,0,1-48.2,48.2h-69a48.23,48.23,0,0,1-48.2-48.2V48.2A48.23,48.23,0,0,1,306.4,0Z"/></g></g></svg>