<svg id="Capa_1" data-name="Capa 1" xmlns="http://www.w3.org/2000/svg" viewBox="0 0 209.66 229.5"><defs><style>.cls-1{fill:#c6c6c6;}</style></defs><path class="cls-1" d="M206.81,32.12a7.55,7.55,0,0,0-5.54-6.19L106.89.28a7.78,7.78,0,0,0-4.12,0L8.39,25.93a7.55,7.55,0,0,0-5.54,6.19c-.55,3.85-13,94.74,19,140S101,228.82,103,229.29a7.82,7.82,0,0,0,3.6,0c2-.47,49.2-12,81.18-57.21S207.35,36,206.81,32.12Zm-38.31,47a14.56,14.56,0,0,1-.7,2.15.14.14,0,0,1,0,.06,7.37,7.37,0,0,1-2.09,3.82l-1.22,1.19L137,113.29,101.32,148.1a7.8,7.8,0,0,1-10.86,0l-13.33-13,0,.05L49.75,108.41c-5.65-5.73-6.24-14.23-1.33-19.28A13.06,13.06,0,0,1,61,85.9,16.76,16.76,0,0,1,68.56,90l.86.84,26.47,25.87,51-49.89a7.67,7.67,0,0,1,3.75-2h0c5.06-2.08,10.73-1.45,14.52,2.06A12.35,12.35,0,0,1,168.5,79.16Z"/><path class="cls-1" d="M145.22,67.61,117.88,95l0,0,26.71-26.71Q144.88,67.9,145.22,67.61Z"/><path class="cls-1" d="M136.22,113.29l26.9-26.91-.19.21-26.7,26.71Z"/></svg>