<svg id="Capa_1" data-name="Capa 1" xmlns="http://www.w3.org/2000/svg" viewBox="0 0 511.38 489.82"><defs><style>.cls-1{fill:#c6c6c6;}</style></defs><path class="cls-1" d="M109.59,238.6l-3.23-.13C107.45,238.47,108.53,238.52,109.59,238.6Z"/><path class="cls-1" d="M469.23,217C464.71,96.35,370.84,0,255.69,0S46.67,96.35,42.15,217q-.18,4.54-.18,9.14a238.93,238.93,0,0,0,7.11,58.08,234.13,234.13,0,0,0,8.93,28c18.07,46.41,50.31,85.06,91,109.91V311.52c0-21.69-14.45-39.81-33.73-44.15H102.63V231.32h.29c0-1.72-.08-3.43-.08-5.16,0-89.33,68.43-161.75,152.85-161.75s152.85,72.42,152.85,161.75q0,5.19-.31,10.31h.52v28.9H404l-.09.41-1.68-.37c-22.25,1.55-39.83,21.14-39.84,45v111.7c40.69-24.85,72.91-63.49,91-109.88a234.9,234.9,0,0,0,9.15-28.95,238.68,238.68,0,0,0,6.89-57.17Q469.41,221.57,469.23,217ZM298.4,445.92A20.35,20.35,0,0,0,286.68,450q10.05-1.55,19.78-4.05Z"/><path class="cls-1" d="M511.38,381.82A106.67,106.67,0,0,1,405,488.81H298.4a21.34,21.34,0,0,1,0-42.67h64v-128a42.68,42.68,0,0,1,39.84-42.57l1.68.35,46.28,9.74a106.7,106.7,0,0,1,61.18,96.16Z"/><path class="cls-1" d="M109.59,238.6l-3.23-.13C107.45,238.47,108.53,238.52,109.59,238.6Z"/><path class="cls-1" d="M149,319.14v128a42.68,42.68,0,0,1-42.63,42.68h0A106.68,106.68,0,0,1,49.08,293.36q3.21-2.06,6.6-3.9L107.74,277l1.85-.44A42.65,42.65,0,0,1,149,319.14Z"/><path class="cls-1" d="M63.7,247.52c-2.75,1.22-5.43,2.53-8,3.94Z"/><path class="cls-1" d="M109.59,238.6l-3.23-.13C107.45,238.47,108.53,238.52,109.59,238.6Z"/><path class="cls-1" d="M149,319.14V348A152.79,152.79,0,0,1,107.74,277l1.85-.44A42.65,42.65,0,0,1,149,319.14Z"/><path class="cls-1" d="M403.92,275.92a152.66,152.66,0,0,1-41.52,72V318.14a42.68,42.68,0,0,1,39.84-42.57Z"/><rect class="cls-1" x="41.97" y="217.02" width="60.66" height="95.26"/><rect class="cls-1" x="408.75" y="217.02" width="60.66" height="95.26"/><rect class="cls-1" x="55.68" y="231.32" width="46.95" height="36.05"/><path class="cls-1" d="M109.59,238.6l-3.23-.13C107.45,238.47,108.53,238.52,109.59,238.6Z"/><rect class="cls-1" x="408.75" y="236.47" width="27.42" height="28.9"/></svg>