<svg id="Layer_1" data-name="Layer 1" xmlns="http://www.w3.org/2000/svg" viewBox="0 0 426.65 421.03"><defs><style>.cls-1{fill:#5a2ce2;}</style></defs><path class="cls-1" d="M298.67,402.52c75.24-33,128-104.72,128-192s-52.74-159-128-192V61.19C349.59,90.76,384,147.52,384,210.52s-34.39,119.77-85.31,149.33Z"/><path class="cls-1" d="M298.67,103.85V317.18c26.13-23.46,42.66-68.88,42.66-106.66S324.8,127.32,298.67,103.85Zm-256,213.33H100.2L256,421V0L100.2,103.85H42.67A42.72,42.72,0,0,0,0,146.52v128A42.71,42.71,0,0,0,42.67,317.18Z"/></svg>