<svg id="Layer_1" data-name="Layer 1" xmlns="http://www.w3.org/2000/svg" viewBox="0 0 426.65 421.03"><defs><style>.cls-1{fill:#5a2ce2;}</style></defs><path class="cls-1" d="M122.18,89.19,36.42,3.43,6.25,33.6l384,384,30.17-30.17-43.1-43.09a204.36,204.36,0,0,0,49.33-133.82c0-87.28-52.74-159-128-192V61.18C349.59,90.75,384,147.52,384,210.52a173.42,173.42,0,0,1-35.65,104.83L320.9,287.91c12.84-23.29,20.43-52,20.43-77.39,0-37.78-16.53-83.2-42.66-106.67V265.68L256,223V0Zm-79.51,228H100.2L256,421V341.1L23.51,108.61A42.56,42.56,0,0,0,0,146.52v128a42.71,42.71,0,0,0,42.67,42.66Z"/></svg>