<svg id="Layer_1" data-name="Layer 1" xmlns="http://www.w3.org/2000/svg" viewBox="0 0 1334.91 834.02"><defs><style>.cls-1{fill:#5a2ce2;}</style></defs><g id="Layer_1-2" data-name="Layer 1-2"><path class="cls-1" d="M954.39,58.07,1316,641c58,93.39-26.57,210-133.36,184.07h0a122.78,122.78,0,0,1-75.33-54.58L842,343.07,560,732.63,420,507.1,748.56,53.55c18.82-26,46.27-45.23,77.77-51.28A123.17,123.17,0,0,1,954.39,58.07Z"/><polygon class="cls-1" points="559.98 732.63 560 732.61 420.06 507.09 420.05 507.1 559.98 732.63"/><path class="cls-1" d="M804.37,660.57,534,225.13c-16.93-27.28-42.94-48.46-73.94-56.79a122.9,122.9,0,0,0-131.76,46.48l-304.9,421c-51.22,70.7-14.37,170.76,70.47,191.37h0a117.59,117.59,0,0,0,126.37-44.41L420,507.13h0L582.87,769.47"/><path class="cls-1" d="M508.83,650.51l77.72,125.25a122.85,122.85,0,0,0,75.36,54.59h0c106.79,25.94,191.28-90.71,133.33-184.09L717.6,521.11"/></g></svg>