<svg xmlns="http://www.w3.org/2000/svg" viewBox="0 0 1334.77 834.02"><defs><style>.cls-1{isolation:isolate;}.cls-2,.cls-3{fill:#fff;}.cls-3{mix-blend-mode:multiply;}</style></defs><g class="cls-1"><g id="Layer_1" data-name="Layer 1"><path class="cls-2" d="M954.27,58.06,1315.92,641c57.95,93.39-26.57,210-133.36,184.07h0a122.78,122.78,0,0,1-75.33-54.58L842,343.06,559.86,732.62,419.93,507.09,748.44,53.54c18.82-26,46.27-45.23,77.77-51.28A123.19,123.19,0,0,1,954.27,58.06Z"/><polygon class="cls-2" points="559.86 732.62 559.88 732.6 419.94 507.08 419.93 507.09 559.86 732.62"/><polygon class="cls-3" points="575.62 292.13 715.57 517.65 801.13 399.52 661.2 173.99 575.62 292.13"/><path class="cls-2" d="M804.25,660.56,534,225.12c-16.93-27.28-42.94-48.46-73.94-56.79a122.91,122.91,0,0,0-131.76,46.48l-304.9,421c-51.22,70.7-14.37,170.76,70.47,191.37h0a117.59,117.59,0,0,0,126.37-44.41L419.91,507.12a0,0,0,0,1,0,0L582.75,769.46"/><path class="cls-2" d="M508.71,650.5l77.72,125.25a122.82,122.82,0,0,0,75.36,54.59h0c106.79,25.94,191.28-90.71,133.33-184.09L717.48,521.1"/></g></g></svg>